<svg xmlns="http://www.w3.org/2000/svg" width="1020.002" height="541" viewBox="-15.441 0 1020.002 541"><path d="M-6.228 488.405L472.874 9.213C478.815 3.273 486.517 0 494.561 0c8.041 0 15.743 3.272 21.685 9.213L995.35 488.408c6.369 6.373 9.211 13.062 9.211 21.688 0 8.628-2.842 15.317-9.211 21.688-5.942 5.943-13.644 9.216-21.688 9.216-8.043 0-15.746-3.272-21.687-9.215L494.561 74.283 37.145 531.784C31.204 537.727 23.503 541 15.459 541c-8.045 0-15.746-3.273-21.686-9.215-5.941-5.941-9.214-13.643-9.214-21.688.001-8.045 3.273-15.748 9.213-21.692z" fill="#0098db"/></svg>